<?xml version="1.0" encoding="UTF-8" standalone="no"?>
<!-- Created with Inkscape (http://www.inkscape.org/) -->

<svg
   width="200mm"
   height="200mm"
   viewBox="0 0 200 200"
   version="1.1"
   id="svg1"
   xml:space="preserve"
   xmlns:xlink="http://www.w3.org/1999/xlink"
   xmlns="http://www.w3.org/2000/svg"
   xmlns:svg="http://www.w3.org/2000/svg"><defs
     id="defs1"><linearGradient
       id="linearGradient69"><stop
         style="stop-color:#000000;stop-opacity:1;"
         offset="0"
         id="stop68" /><stop
         style="stop-color:#ffffff;stop-opacity:1;"
         offset="1"
         id="stop69" /></linearGradient><linearGradient
       id="linearGradient67"><stop
         style="stop-color:#000000;stop-opacity:1;"
         offset="0"
         id="stop66" /><stop
         style="stop-color:#ffffff;stop-opacity:1;"
         offset="0.51560819"
         id="stop67" /></linearGradient><linearGradient
       id="linearGradient65"><stop
         style="stop-color:#ffffff;stop-opacity:1;"
         offset="0.10144507"
         id="stop64" /><stop
         style="stop-color:#000000;stop-opacity:1;"
         offset="0.67947149"
         id="stop65" /></linearGradient><linearGradient
       id="linearGradient62"><stop
         style="stop-color:#000000;stop-opacity:1;"
         offset="0"
         id="stop62" /><stop
         style="stop-color:#000000;stop-opacity:0;"
         offset="1"
         id="stop63" /></linearGradient><linearGradient
       id="linearGradient55"><stop
         style="stop-color:#000000;stop-opacity:1;"
         offset="0"
         id="stop48" /><stop
         style="stop-color:#ffffff;stop-opacity:1;"
         offset="0.8277275"
         id="stop55" /></linearGradient><linearGradient
       id="linearGradient45"><stop
         style="stop-color:#000000;stop-opacity:1;"
         offset="0"
         id="stop46" /><stop
         style="stop-color:#ffffff;stop-opacity:0;"
         offset="1"
         id="stop47" /></linearGradient><linearGradient
       id="linearGradient36"><stop
         style="stop-color:#000000;stop-opacity:1;"
         offset="0.20045869"
         id="stop32" /><stop
         style="stop-color:#ffffff;stop-opacity:1;"
         offset="0.67631102"
         id="stop36" /></linearGradient><linearGradient
       id="linearGradient30"><stop
         style="stop-color:#000000;stop-opacity:1;"
         offset="0"
         id="stop30" /><stop
         style="stop-color:#ffffff;stop-opacity:0;"
         offset="1"
         id="stop31" /></linearGradient><linearGradient
       id="linearGradient25"><stop
         style="stop-color:#000000;stop-opacity:1;"
         offset="0"
         id="stop25" /><stop
         style="stop-color:#ffffff;stop-opacity:0;"
         offset="1"
         id="stop28" /></linearGradient><linearGradient
       id="linearGradient18"><stop
         style="stop-color:#000000;stop-opacity:1;"
         offset="0"
         id="stop18" /><stop
         style="stop-color:#ffffff;stop-opacity:0;"
         offset="1"
         id="stop19" /></linearGradient><linearGradient
       id="linearGradient11"><stop
         style="stop-color:#ffffff;stop-opacity:1;"
         offset="0.10144507"
         id="stop9" /><stop
         style="stop-color:#000000;stop-opacity:1;"
         offset="0.71338153"
         id="stop10" /></linearGradient><linearGradient
       id="linearGradient8"><stop
         style="stop-color:#060608;stop-opacity:1;"
         offset="0.57236153"
         id="stop7" /><stop
         style="stop-color:#ffffff;stop-opacity:1;"
         offset="1"
         id="stop8" /></linearGradient><linearGradient
       id="linearGradient6"><stop
         style="stop-color:#060608;stop-opacity:1;"
         offset="0.55159473"
         id="stop5" /><stop
         style="stop-color:#ffffff;stop-opacity:1;"
         offset="1"
         id="stop6" /></linearGradient><linearGradient
       id="linearGradient4"><stop
         style="stop-color:#000000;stop-opacity:1;"
         offset="0"
         id="stop3" /><stop
         style="stop-color:#ffffff;stop-opacity:1;"
         offset="1"
         id="stop4" /></linearGradient><linearGradient
       id="linearGradient2"><stop
         style="stop-color:#000000;stop-opacity:1;"
         offset="0"
         id="stop1" /><stop
         style="stop-color:#ffffff;stop-opacity:1;"
         offset="0.75797373"
         id="stop2" /></linearGradient><linearGradient
       id="linearGradient53"><stop
         style="stop-color:#d4929b;stop-opacity:1;"
         offset="0.39963832"
         id="stop53" /><stop
         style="stop-color:#d6b189;stop-opacity:1;"
         offset="1"
         id="stop54" /></linearGradient><linearGradient
       id="linearGradient51"><stop
         style="stop-color:#d4929b;stop-opacity:1;"
         offset="0"
         id="stop51" /><stop
         style="stop-color:#b8a9d4;stop-opacity:1;"
         offset="1"
         id="stop52" /></linearGradient><linearGradient
       id="linearGradient49"><stop
         style="stop-color:#efc0b0;stop-opacity:1;"
         offset="0"
         id="stop49" /><stop
         style="stop-color:#b97b69;stop-opacity:1;"
         offset="1"
         id="stop50" /></linearGradient><linearGradient
       id="linearGradient38"><stop
         style="stop-color:#d6b189;stop-opacity:1;"
         offset="0.20045869"
         id="stop38" /><stop
         style="stop-color:#d4929b;stop-opacity:1;"
         offset="0.67631102"
         id="stop39" /></linearGradient><linearGradient
       id="linearGradient33"><stop
         style="stop-color:#e8b4a0;stop-opacity:1;"
         offset="0.03189493"
         id="stop33" /><stop
         style="stop-color:#b8a9d4;stop-opacity:1;"
         offset="0.5"
         id="stop35" /><stop
         style="stop-color:#d6b189;stop-opacity:1"
         offset="1"
         id="stop34" /></linearGradient><linearGradient
       id="linearGradient26"><stop
         style="stop-color:#9b90b5;stop-opacity:1;"
         offset="0.55159473"
         id="stop26" /><stop
         style="stop-color:#d6b189;stop-opacity:1;"
         offset="1"
         id="stop27" /></linearGradient><linearGradient
       id="linearGradient22"><stop
         style="stop-color:#e8b4a0;stop-opacity:1;"
         offset="0"
         id="stop22" /><stop
         style="stop-color:#8a81a3;stop-opacity:1;"
         offset="0.75797373"
         id="stop23" /></linearGradient><linearGradient
       id="linearGradient20"><stop
         style="stop-color:#e8b4a0;stop-opacity:1;"
         offset="0"
         id="stop20" /><stop
         style="stop-color:#8f84aa;stop-opacity:1;"
         offset="1"
         id="stop21" /></linearGradient><linearGradient
       id="linearGradient16"><stop
         style="stop-color:#e8b4a0;stop-opacity:1;"
         offset="0"
         id="stop16" /><stop
         style="stop-color:#b8a9d4;stop-opacity:1;"
         offset="0.51560819"
         id="stop17" /></linearGradient><linearGradient
       xlink:href="#linearGradient16"
       id="linearGradient17"
       x1="39.522888"
       y1="43.97097"
       x2="172.28206"
       y2="43.97097"
       gradientUnits="userSpaceOnUse" /><linearGradient
       xlink:href="#linearGradient20"
       id="linearGradient21"
       x1="47.15773"
       y1="56.701885"
       x2="120.79481"
       y2="56.701885"
       gradientUnits="userSpaceOnUse" /><linearGradient
       xlink:href="#linearGradient22"
       id="linearGradient23"
       x1="54.695927"
       y1="56.99527"
       x2="106.41719"
       y2="56.99527"
       gradientUnits="userSpaceOnUse" /><linearGradient
       xlink:href="#linearGradient26"
       id="linearGradient27"
       x1="144.40788"
       y1="54.365688"
       x2="179.0976"
       y2="8.432744"
       gradientUnits="userSpaceOnUse" /><linearGradient
       xlink:href="#linearGradient33"
       id="linearGradient34"
       x1="42.276073"
       y1="84.64164"
       x2="127.84822"
       y2="47.1003"
       gradientUnits="userSpaceOnUse" /><linearGradient
       xlink:href="#linearGradient38"
       id="linearGradient39"
       x1="53.748985"
       y1="189.52603"
       x2="142.27194"
       y2="66.743752"
       gradientUnits="userSpaceOnUse" /><linearGradient
       xlink:href="#linearGradient49"
       id="linearGradient50"
       x1="44.939205"
       y1="148.70644"
       x2="62.108849"
       y2="162.83966"
       gradientUnits="userSpaceOnUse" /><linearGradient
       xlink:href="#linearGradient51"
       id="linearGradient52"
       x1="78.615997"
       y1="119.13856"
       x2="94.295036"
       y2="123.55518"
       gradientUnits="userSpaceOnUse" /><linearGradient
       xlink:href="#linearGradient53"
       id="linearGradient54"
       x1="116.21255"
       y1="122.15851"
       x2="159.18294"
       y2="90.35878"
       gradientUnits="userSpaceOnUse" /><linearGradient
       xlink:href="#linearGradient2"
       id="linearGradient1"
       gradientUnits="userSpaceOnUse"
       x1="74.058708"
       y1="1.717667"
       x2="92.675865"
       y2="76.358047"
       gradientTransform="translate(-0.53556126,-0.02580168)" /><linearGradient
       xlink:href="#linearGradient4"
       id="linearGradient3"
       gradientUnits="userSpaceOnUse"
       x1="105.24607"
       y1="24.534693"
       x2="130.78848"
       y2="101.9858"
       gradientTransform="translate(-34.986897,-26.617276)" /><linearGradient
       xlink:href="#linearGradient6"
       id="linearGradient5"
       gradientUnits="userSpaceOnUse"
       x1="186.15469"
       y1="-4.5974913"
       x2="264.23041"
       y2="22.260553"
       gradientTransform="translate(-104.95596,7.0959122)" /><linearGradient
       xlink:href="#linearGradient8"
       id="linearGradient7"
       gradientUnits="userSpaceOnUse"
       gradientTransform="translate(-209.91192,14.191824)"
       x1="349.80136"
       y1="73.79052"
       x2="391.64996"
       y2="-51.130615" /><linearGradient
       xlink:href="#linearGradient11"
       id="linearGradient9"
       gradientUnits="userSpaceOnUse"
       x1="153.45589"
       y1="128.98865"
       x2="151.58322"
       y2="67.087685"
       gradientTransform="translate(-30.340816,-77.792462)" /><linearGradient
       xlink:href="#linearGradient18"
       id="linearGradient19"
       x1="150.92035"
       y1="1.563501"
       x2="139.40797"
       y2="65.897888"
       gradientUnits="userSpaceOnUse" /><linearGradient
       xlink:href="#linearGradient18"
       id="linearGradient24"
       gradientUnits="userSpaceOnUse"
       x1="129.37146"
       y1="134.60451"
       x2="204.36697"
       y2="168.64552"
       gradientTransform="translate(-40.204501,-80.052287)" /><radialGradient
       xlink:href="#linearGradient25"
       id="radialGradient28"
       cx="58.883991"
       cy="167.44191"
       fx="58.883991"
       fy="167.44191"
       r="54.986717"
       gradientTransform="matrix(1.6239564,-0.08173262,0.06245592,1.2409444,-50.081066,-49.006066)"
       gradientUnits="userSpaceOnUse" /><radialGradient
       xlink:href="#linearGradient30"
       id="radialGradient31"
       cx="124.20231"
       cy="126.76298"
       fx="124.20231"
       fy="126.76298"
       r="22.58935"
       gradientTransform="matrix(1.7280311,0.30796406,-0.19802144,1.1111269,-70.49478,-70.159629)"
       gradientUnits="userSpaceOnUse" /><radialGradient
       xlink:href="#linearGradient30"
       id="radialGradient31-1"
       cx="184.93843"
       cy="58.95639"
       fx="184.93843"
       fy="58.95639"
       r="22.58935"
       gradientTransform="matrix(-0.31883759,1.919241,-1.2741649,-0.21167314,294.98533,-278.93986)"
       gradientUnits="userSpaceOnUse" /><linearGradient
       xlink:href="#linearGradient36"
       id="linearGradient31"
       gradientUnits="userSpaceOnUse"
       x1="83.105453"
       y1="15.885652"
       x2="209.72937"
       y2="127.33051"
       gradientTransform="translate(-46.411581,-0.72595267)" /><radialGradient
       xlink:href="#linearGradient45"
       id="radialGradient47"
       cx="97.278122"
       cy="125.0645"
       fx="97.278122"
       fy="125.0645"
       r="55.594299"
       gradientTransform="matrix(-1.007273,-0.337091,0.57986137,-1.7327034,147.8839,361.28864)"
       gradientUnits="userSpaceOnUse" /><radialGradient
       xlink:href="#linearGradient55"
       id="radialGradient48"
       cx="119.03278"
       cy="227.1367"
       fx="119.03278"
       fy="227.1367"
       r="54.986717"
       gradientTransform="matrix(-0.96236316,-0.2717667,0.06815528,-0.24134718,229.71427,202.40968)"
       gradientUnits="userSpaceOnUse" /><filter
       style="color-interpolation-filters:sRGB"
       id="filter57"
       x="-0.0080846436"
       y="-0.0075402561"
       width="1.0171661"
       height="1.0151083"><feGaussianBlur
         stdDeviation="0.33610656"
         id="feGaussianBlur57" /></filter><filter
       style="color-interpolation-filters:sRGB"
       id="filter58"
       x="-0.014978088"
       y="-0.024847638"
       width="1.0299559"
       height="1.0502728"><feGaussianBlur
         stdDeviation="0.77187687"
         id="feGaussianBlur58" /></filter><filter
       style="color-interpolation-filters:sRGB"
       id="filter60"
       x="-0.076554339"
       y="-0.050865422"
       width="1.1543533"
       height="1.1017217"><feGaussianBlur
         stdDeviation="3.4493438"
         id="feGaussianBlur60" /></filter><filter
       style="color-interpolation-filters:sRGB"
       id="filter61"
       x="-0.022034819"
       y="-0.014799694"
       width="1.0450615"
       height="1.0295763"><feGaussianBlur
         stdDeviation="0.79912888"
         id="feGaussianBlur61" /></filter><linearGradient
       xlink:href="#linearGradient62"
       id="linearGradient61"
       gradientUnits="userSpaceOnUse"
       gradientTransform="translate(-111.60858,47.231428)"
       x1="177.50449"
       y1="200.11243"
       x2="201.86409"
       y2="108.60769" /><linearGradient
       xlink:href="#linearGradient65"
       id="linearGradient63"
       gradientUnits="userSpaceOnUse"
       gradientTransform="translate(-79.467049,-110.07659)"
       x1="161.88806"
       y1="220.49338"
       x2="244.64946"
       y2="511.80692" /><linearGradient
       xlink:href="#linearGradient67"
       id="linearGradient66"
       gradientUnits="userSpaceOnUse"
       x1="195.362"
       y1="196.06244"
       x2="136.99182"
       y2="-109.05742"
       gradientTransform="translate(-75.638488,16.963571)" /><linearGradient
       xlink:href="#linearGradient69"
       id="linearGradient68"
       gradientUnits="userSpaceOnUse"
       x1="133.5813"
       y1="162.23636"
       x2="141.32341"
       y2="180.66222"
       gradientTransform="translate(-56.126415,-54.574017)" /><radialGradient
       xlink:href="#linearGradient4"
       id="radialGradient70"
       cx="23.398193"
       cy="138.57164"
       fx="23.398193"
       fy="138.57164"
       r="36.818542"
       gradientTransform="matrix(0.43858992,-0.4650275,0.50151293,0.47300107,-27.323998,20.77632)"
       gradientUnits="userSpaceOnUse" /></defs><g
     id="layer1"
     style="display:inline;opacity:1"><g
       id="Middle-Side-group"
       style="display:inline"><path
         style="display:inline;opacity:1;fill:#d6b189;fill-opacity:1;stroke:none;stroke-width:0.264583px;stroke-linecap:butt;stroke-linejoin:miter;stroke-opacity:1"
         d="M 144.09252,26.168527 125.6531,121.82995 c 0,0 -8.22723,73.20317 -55.541113,72.57857 0,0 -23.188485,-0.23423 -35.992902,-11.71136 0,0 23.500789,6.63644 29.12224,3.51341 0,0 34.977918,-0.85883 48.875395,-68.7847 l 17.95741,-91.348583 z"
         id="Middle-side" /><path
         style="display:inline;opacity:1;mix-blend-mode:normal;fill:none;fill-opacity:1;stroke:#000000;stroke-width:0.565;stroke-linecap:butt;stroke-linejoin:miter;stroke-dasharray:0.14125, 0.14125;stroke-dashoffset:0;stroke-opacity:1;filter:url(#filter60)"
         d="M 144.09252,26.168527 125.6531,121.82995 c 0,0 -8.22723,73.20317 -55.541113,72.57857 0,0 -23.188485,-0.23423 -35.992902,-11.71136 0,0 23.500789,6.63644 29.12224,3.51341 0,0 34.977918,-0.85883 48.875395,-68.7847 l 17.95741,-91.348583 z"
         id="Middle-side-border" /><path
         style="display:inline;mix-blend-mode:multiply;fill:url(#linearGradient19);stroke:none;stroke-width:0.264583px;stroke-linecap:butt;stroke-linejoin:miter;stroke-opacity:0.65" id="Middle-side-darken" /><path
         style="display:inline;mix-blend-mode:multiply;fill:url(#linearGradient24);stroke:none;stroke-width:0.264583px;stroke-linecap:butt;stroke-linejoin:miter;stroke-opacity:0.65" id="Middle-side-darken-2" /><path
         style="display:inline;mix-blend-mode:multiply;fill:url(#radialGradient28);stroke:none;stroke-width:0.264583px;stroke-linecap:butt;stroke-linejoin:miter;stroke-opacity:0.65" id="Middle-side-darken-3" /><path
         style="display:inline;mix-blend-mode:multiply;fill:url(#radialGradient48);fill-opacity:0.65;stroke:none;stroke-width:0.264583px;stroke-linecap:butt;stroke-linejoin:miter;stroke-opacity:1" id="Middle-side-darken-4" /></g><g
       id="g71"
       style="display:inline"><path
         style="display:inline;opacity:1;fill:url(#linearGradient27);fill-opacity:1;stroke:none;stroke-width:0.265;stroke-linecap:butt;stroke-linejoin:miter;stroke-dasharray:none;stroke-opacity:1"
         d="m 169.73659,5.074921 10.38407,4.996845 c 0,0 13.74132,37.007887 -38.64747,29.981073 l -15.61515,-8.666404 c 0,0 35.91482,4.840694 43.87855,-26.311514 z"
         id="Top-right" /><path
         style="display:inline;opacity:0.467;mix-blend-mode:multiply;fill:url(#linearGradient5);fill-opacity:1;stroke:none;stroke-width:0.265;stroke-linecap:butt;stroke-linejoin:miter;stroke-dasharray:none;stroke-opacity:1" id="Top-right-darken" /><path
         style="display:inline;opacity:1;mix-blend-mode:screen;fill:url(#linearGradient7);fill-opacity:1;stroke:none;stroke-width:0.265;stroke-linecap:butt;stroke-linejoin:miter;stroke-dasharray:none;stroke-opacity:1"
         d="m 169.73659,5.074921 10.38407,4.996845 c 0,0 13.74132,37.007887 -38.64747,29.981073 l -15.61515,-8.666404 c 0,0 35.91482,4.840694 43.87855,-26.311514 z"
         id="Top-right-lighten" /></g><g
       id="Top-left-side-group"
       style="display:inline"><path
         style="display:inline;opacity:1;fill:url(#linearGradient21);stroke:none;stroke-width:0.264583px;stroke-linecap:butt;stroke-linejoin:miter;stroke-opacity:1"
         d="m 47.157729,71.673499 c 0,0 1.09306,16.395901 18.113563,15.615142 0,0 15.849371,0.23423 12.960569,-15.302837 0,0 -7.495268,-26.467665 39.974759,-29.590694 l 2.58819,-16.116167 c 0,0 -68.65816,-5.714234 -73.637081,45.394556 z"
         id="path10" /><path
         style="display:inline;opacity:0.492;mix-blend-mode:multiply;fill:url(#linearGradient3);stroke:none;stroke-width:0.264583px;stroke-linecap:butt;stroke-linejoin:miter;stroke-opacity:1" id="Top-left-side-darken" /><path
         style="display:inline;opacity:0.354;mix-blend-mode:multiply;fill:url(#radialGradient70);fill-opacity:1;stroke:none;stroke-width:0.264583px;stroke-linecap:butt;stroke-linejoin:miter;stroke-opacity:1" id="Top-left-side-darken-2" /></g><g
       id="Top-left-group"><path
         style="display:inline;opacity:1;fill:url(#linearGradient23);stroke:none;stroke-width:1.765;stroke-linecap:butt;stroke-linejoin:miter;stroke-dasharray:none;stroke-opacity:1"
         d="m 64.111127,79.299121 c 0,0 6.55836,-2.18612 4.606468,-15.69322 0,0 -2.888802,-11.008675 12.570189,-20.690063 0,0 9.681388,-5.465299 24.593846,-8.276025 0,0 -27.014193,0.936909 -44.581228,16.942429 -17.567035,16.005521 2.810725,27.716879 2.810725,27.716879 z"
         id="Top-left" /><path
         style="display:inline;opacity:0.512;mix-blend-mode:multiply;fill:url(#linearGradient1);stroke:none;stroke-width:1.765;stroke-linecap:butt;stroke-linejoin:miter;stroke-dasharray:none;stroke-opacity:1" id="Top-left-darken" /></g><g
       id="Left-Edge-group"
       style="display:inline"><path
         style="display:inline;opacity:1;fill:url(#linearGradient52);stroke:none;stroke-width:0.264583px;stroke-linecap:butt;stroke-linejoin:miter;stroke-opacity:1"
         d="m 78.615997,117.09588 13.636341,6.01765 1.601029,-7.94993 z"
         id="Left-edge" /><path
         style="display:inline;mix-blend-mode:multiply;fill:url(#linearGradient68);stroke:none;stroke-width:0.264583px;stroke-linecap:butt;stroke-linejoin:miter;stroke-opacity:0.65" id="Left-edge-darken" /></g><g
       id="Bottom-left-group"
       style="display:inline"><path
         style="display:inline;opacity:1;fill:url(#linearGradient50);fill-opacity:1;stroke:none;stroke-width:0.264583px;stroke-linecap:butt;stroke-linejoin:miter;stroke-opacity:1"
         d="m 40.964236,149.39248 8.943673,2.70518 c 0,0 6.514528,1.21458 7.839517,8.17077 1.324988,6.95619 6.128073,9.827 6.128073,9.827 0,0 -22.469602,1.04894 -22.911263,-20.70295 z"
         id="Bottom-left" /></g><g
       id="Middle-Back-group"
       style="display:inline"><path
         style="display:inline;opacity:1;fill:url(#linearGradient34);stroke:none;stroke-width:0.264583px;stroke-linecap:butt;stroke-linejoin:miter;stroke-opacity:1"
         d="m 95.951266,92.970042 13.470714,-67.684841 25.49285,-0.144822 -17.40489,92.756011 c 0,0 -12.28375,71.90825 -55.897964,73.0124 0,0 -36.940052,2.71897 -37.87696,-31.79049 0,0 -0.702682,-9.52524 10.462145,-10.9306 11.164826,-1.40537 12.960568,7.57334 12.960568,7.57334 0,0 2.029968,11.47713 13.507098,11.39905 11.477129,-0.0781 18.19164,-14.36593 18.19164,-14.36593 0,0 8.276025,-17.09858 11.477129,-35.36829 l -9.993691,0.3123 c 0,0 -9.212933,0.62461 -6.011829,-13.74132 0,0 1.483438,-9.056787 14.053628,-10.149847 z"
         id="Middle-back" /><path
         style="display:inline;opacity:0.308594;fill:none;stroke:#ffffff;stroke-width:1.065;stroke-linecap:butt;stroke-linejoin:miter;stroke-dasharray:0.26625, 0.26625;stroke-dashoffset:0;stroke-opacity:1;filter:url(#filter61)"
         d="m 95.951266,92.970042 13.470714,-67.684841 25.49285,-0.144822 -17.40489,92.756011 c 0,0 -12.28375,71.90825 -55.897964,73.0124 0,0 -36.940052,2.71897 -37.87696,-31.79049 0,0 -0.702682,-9.52524 10.462145,-10.9306 11.164826,-1.40537 12.960568,7.57334 12.960568,7.57334 0,0 2.029968,11.47713 13.507098,11.39905 11.477129,-0.0781 18.19164,-14.36593 18.19164,-14.36593 0,0 8.276025,-17.09858 11.477129,-35.36829 l -9.993691,0.3123 c 0,0 -9.212933,0.62461 -6.011829,-13.74132 0,0 1.483438,-9.056787 14.053628,-10.149847 z"
         id="Middle-back-border" /><path
         style="display:inline;opacity:0.397;mix-blend-mode:multiply;fill:url(#radialGradient47);stroke:none;stroke-width:0.264583px;stroke-linecap:butt;stroke-linejoin:miter;stroke-opacity:1" id="Middle-back-darken" /><path
         style="display:inline;opacity:0.65;mix-blend-mode:multiply;fill:url(#linearGradient9);stroke:none;stroke-width:0.264583px;stroke-linecap:butt;stroke-linejoin:miter;stroke-opacity:1" id="Middle-back-darken-2" /><path
         style="display:inline;mix-blend-mode:multiply;fill:url(#linearGradient63);stroke:none;stroke-width:0.264583px;stroke-linecap:butt;stroke-linejoin:miter;stroke-opacity:0.65" id="Middle-back-darken-3" /></g><g
       id="Middle-right-group"
       style="display:inline"><path
         style="display:inline;opacity:1;fill:url(#linearGradient54);stroke:none;stroke-width:0.264583px;stroke-linecap:butt;stroke-linejoin:miter;stroke-opacity:1"
         d="m 146.87017,89.757786 9.35932,4.401518 c 0,0 5.38723,10.813486 -3.43533,21.783126 0,0 -4.48935,5.4653 -12.96056,5.54337 -8.47122,0.0781 -14.13171,0.39038 -14.13171,0.39038 l -13.02264,-6.27091 c 0,0 30.53112,9.72576 34.19092,-25.847484 z"
         id="Middle-right" /><path
         style="display:inline;opacity:0.419;mix-blend-mode:multiply;fill:url(#radialGradient31);fill-opacity:1;stroke:none;stroke-width:0.264583px;stroke-linecap:butt;stroke-linejoin:miter;stroke-opacity:1" id="Middle-right-darken" /><path
         style="display:inline;opacity:0.645;mix-blend-mode:screen;fill:url(#radialGradient31-1);fill-opacity:1;stroke:none;stroke-width:0.264583px;stroke-linecap:butt;stroke-linejoin:miter;stroke-opacity:1"
         d="m 146.87017,89.757786 9.35932,4.401518 c 0,0 5.38723,10.813486 -3.43533,21.783126 0,0 -4.48935,5.4653 -12.96056,5.54337 -8.47122,0.0781 -14.13171,0.39038 -14.13171,0.39038 l -13.02264,-6.27091 c 0,0 30.53112,9.72576 34.19092,-25.847484 z"
         id="Middle-right-lighten" /></g><g
       id="Middle-front-group"
       style="display:inline"><path
         style="display:inline;opacity:1;mix-blend-mode:normal;fill:url(#linearGradient39);stroke:none;stroke-width:3.165;stroke-linecap:butt;stroke-linejoin:miter;stroke-dasharray:none;stroke-opacity:1"
         d="m 42.707414,187.92823 c 0,0 22.251577,4.99685 35.055992,-14.20978 12.804415,-19.20662 17.410882,-49.10962 17.410882,-49.10962 l 3.123031,-15.14669 c 0,0 7.339111,-43.488165 29.356461,-44.971604 l -5.30914,28.419559 c 0,0 10.54022,1.873817 24.51577,-3.201104 0,0 8.0418,28.419559 -18.34779,27.794949 l -11.00868,0.39038 c 0,0 -6.79258,36.07098 -17.48896,50.43691 0,0 -17.020499,32.32334 -57.307566,19.597 z"
         id="Middle-front" /><path
         style="display:inline;opacity:0.494141;mix-blend-mode:normal;fill:none;stroke:#ffffff;stroke-width:0.3;stroke-linecap:butt;stroke-linejoin:miter;stroke-dasharray:0.075, 0.075;stroke-dashoffset:0;stroke-opacity:1;filter:url(#filter57)"
         d="m 42.707414,187.92823 c 0,0 22.251577,4.99685 35.055992,-14.20978 12.804415,-19.20662 17.410882,-49.10962 17.410882,-49.10962 l 3.123031,-15.14669 c 0,0 7.339111,-43.488165 29.356461,-44.971604 l -5.30914,28.419559 c 0,0 10.54022,1.873817 24.51577,-3.201104 0,0 8.0418,28.419559 -18.34779,27.794949 l -11.00868,0.39038 c 0,0 -6.79258,36.07098 -17.48896,50.43691 0,0 -17.020499,32.32334 -57.307566,19.597 z"
         id="Middle-front-border" /><path
         style="display:inline;opacity:0.304;mix-blend-mode:multiply;fill:url(#linearGradient31);stroke:none;stroke-width:4.265;stroke-linecap:butt;stroke-linejoin:miter;stroke-dasharray:none;stroke-opacity:1" id="Middle-front-darken" /><path
         style="display:inline;opacity:0.304;mix-blend-mode:multiply;fill:url(#linearGradient61);fill-opacity:1;stroke:none;stroke-width:4.265;stroke-linecap:butt;stroke-linejoin:miter;stroke-dasharray:none;stroke-opacity:1" id="Middle-front-darken-2" /></g><g
       id="Top-group"><path
         style="display:inline;opacity:1;fill:url(#linearGradient17);fill-opacity:1;stroke:none;stroke-width:0.264583px;stroke-linecap:butt;stroke-linejoin:miter;stroke-opacity:1"
         d="m 169.73659,4.9968454 c 0,0 14.36593,31.5425856 -27.0142,31.0741336 0,0 -32.96916,-3.719171 -56.708538,4.00993 -23.739382,7.729101 -23.960213,21.19982 -23.960213,21.19982 0,0 -1.857267,10.392773 5.559926,15.233467 0,0 -4.059937,6.089905 -12.960568,6.480284 0,0 -15.380915,2.264195 -14.990536,-20.377761 0.390378,-22.641956 21.392744,-35.290221 21.392744,-35.290221 0,0 25.764984,-18.2697157 74.015775,-15.771293 0,0 25.76498,3.903785 34.66561,-6.5583596 z"
         id="Top" /><path
         style="display:inline;mix-blend-mode:multiply;fill:url(#linearGradient66);fill-opacity:0.65;stroke:none;stroke-width:0.264583px;stroke-linecap:butt;stroke-linejoin:miter;stroke-opacity:1" id="Top-darken" /><path
         style="display:inline;fill:none;fill-opacity:1;stroke:#ffffff;stroke-width:0.265;stroke-linecap:butt;stroke-linejoin:miter;stroke-dasharray:0.06625, 0.06625;stroke-dashoffset:0;stroke-opacity:1;filter:url(#filter58)"
         d="m 169.73659,4.9968454 c 0,0 14.36593,31.5425856 -27.0142,31.0741336 0,0 -32.96916,-3.719171 -56.708538,4.00993 -23.739382,7.729101 -23.960213,21.19982 -23.960213,21.19982 0,0 -1.857267,10.392773 5.559926,15.233467 0,0 -4.059937,6.089905 -12.960568,6.480284 0,0 -15.380915,2.264195 -14.990536,-20.377761 0.390378,-22.641956 21.392744,-35.290221 21.392744,-35.290221 0,0 25.764984,-18.2697157 74.015775,-15.771293 0,0 25.76498,3.903785 34.66561,-6.5583596 z"
         id="Top-border" /></g></g></svg>
