<svg xmlns="http://www.w3.org/2000/svg" viewBox="0 0 1440 12" preserveAspectRatio="none">
  <defs>
    <linearGradient id="brush-gradient" x1="0%" y1="0%" x2="100%" y2="0%">
      <stop offset="0%" stop-color="#B8A9D4" stop-opacity="0"/>
      <stop offset="12%" stop-color="#B8A9D4" stop-opacity="0.4"/>
      <stop offset="35%" stop-color="#E8B4A0" stop-opacity="0.55"/>
      <stop offset="50%" stop-color="#E8B4A0" stop-opacity="0.6"/>
      <stop offset="65%" stop-color="#D4929B" stop-opacity="0.55"/>
      <stop offset="88%" stop-color="#D4929B" stop-opacity="0.4"/>
      <stop offset="100%" stop-color="#D4929B" stop-opacity="0"/>
    </linearGradient>
  </defs>
  <path d="M0,6 C40,3 90,8.5 160,4.5 C230,1.5 300,9 400,5 C480,1.5 560,9.5 660,6.5 C740,3.5 820,9 920,5.5 C1000,2 1080,9.5 1160,6 C1240,2.5 1320,8.5 1440,5.5" 
    fill="none" 
    stroke="url(#brush-gradient)" 
    stroke-width="4" 
    stroke-linecap="round"
    stroke-linejoin="round"/>
  <path d="M0,6.5 C50,4 100,8 180,3.5 C260,0.5 340,10 440,6 C520,2 600,10 700,5.5 C780,2 860,9.5 960,6 C1040,2.5 1120,9 1200,5.5 C1280,2.5 1360,9 1440,6"
    fill="none"
    stroke="url(#brush-gradient)"
    stroke-width="2"
    stroke-linecap="round"
    stroke-opacity="0.35"/>
</svg>